<?xml version="1.0" standalone="no"?>
<!DOCTYPE svg PUBLIC "-//W3C//DTD SVG 20010904//EN"
 "http://www.w3.org/TR/2001/REC-SVG-20010904/DTD/svg10.dtd">
<svg version="1.0" xmlns="http://www.w3.org/2000/svg"
 width="414.000000pt" height="414.000000pt" viewBox="0 0 414.000000 414.000000"
 preserveAspectRatio="xMidYMid meet">
<metadata>
Created by potrace 1.14, written by Peter Selinger 2001-2017
</metadata>
<g transform="translate(0.000000,414.000000) scale(0.100000,-0.100000)"
fill="#000000" stroke="none">
<path d="M1827 4129 c-38 -4 -125 -19 -193 -34 -589 -126 -1095 -503 -1382
-1032 -182 -335 -265 -695 -248 -1078 8 -178 18 -254 52 -395 61 -247 169
-490 305 -690 109 -159 303 -362 462 -481 473 -355 1083 -493 1657 -373 301
62 535 167 830 371 14 9 54 42 90 73 341 291 575 671 678 1105 70 293 72 656
5 940 -146 626 -565 1144 -1143 1413 -190 89 -441 159 -642 181 -110 12 -368
12 -471 0z m642 -38 c413 -87 745 -264 1040 -554 310 -305 508 -682 587 -1117
22 -120 30 -433 14 -583 -13 -125 -63 -349 -101 -447 -62 -162 -128 -300 -197
-410 -118 -188 -369 -460 -519 -560 -12 -8 -48 -34 -80 -56 -81 -56 -249 -148
-353 -191 -544 -226 -1160 -210 -1681 45 -185 91 -243 128 -394 247 -353 281
-609 681 -715 1118 -44 180 -54 272 -54 492 0 218 9 304 49 470 183 771 790
1366 1570 1540 173 38 245 44 480 40 187 -3 226 -7 354 -34z"/>
<path d="M1845 2959 c-163 -9 -395 -40 -550 -74 -129 -27 -381 -98 -430 -120
-16 -7 -75 -32 -130 -55 -299 -125 -471 -264 -563 -457 -37 -78 -37 -79 -37
-208 0 -129 0 -131 37 -207 46 -97 82 -150 151 -219 153 -156 393 -288 662
-363 364 -101 588 -130 995 -130 157 0 330 3 385 7 278 21 548 64 735 118 181
52 218 67 388 151 239 119 393 263 468 438 22 52 28 85 32 163 6 137 -17 217
-100 337 -177 259 -490 431 -971 534 -373 79 -711 106 -1072 85z m25 -24 c0
-3 -10 -22 -23 -43 -12 -20 -31 -54 -42 -74 -22 -43 -28 -44 -165 -28 -123 15
-134 18 -120 35 6 7 43 33 83 56 62 37 83 44 147 50 112 9 120 9 120 4z m200
-79 l0 -85 -122 0 c-68 1 -126 3 -130 5 -9 6 8 46 50 112 l33 52 84 0 85 0 0
-84z m191 26 c63 -98 63 -98 -33 -105 -46 -4 -95 -7 -110 -7 l-28 0 0 85 0 85
68 0 67 0 36 -58z m231 27 c59 -29 118 -68 118 -78 0 -9 -91 -25 -211 -37 -61
-6 -67 -5 -73 13 -3 11 -22 46 -41 77 l-34 58 102 -7 c69 -5 114 -13 139 -26z
m-892 2 c0 -5 -17 -20 -37 -32 -21 -12 -50 -33 -65 -45 l-28 -23 -77 21 c-43
11 -82 24 -86 28 -4 4 52 17 125 29 73 13 138 24 143 26 18 6 25 5 25 -4z
m1064 -11 c122 -18 129 -24 59 -43 -77 -22 -75 -22 -133 16 -53 34 -64 53 -27
44 12 -3 58 -11 101 -17z m271 -50 c147 -33 181 -48 259 -114 76 -64 166 -160
166 -176 0 -11 -123 -50 -252 -80 l-97 -22 -55 27 c-31 15 -56 31 -56 35 0 19
-105 165 -164 227 l-66 70 73 26 c88 31 82 31 192 7z m-1624 -19 c31 -10 74
-22 98 -26 l42 -7 -53 -56 c-30 -32 -69 -78 -87 -104 -24 -34 -48 -53 -90 -72
-31 -14 -82 -43 -114 -65 -32 -23 -68 -41 -80 -41 -40 1 -263 64 -281 80 -13
13 69 104 160 180 57 47 96 70 130 80 27 7 76 21 109 31 77 23 100 23 166 0z
m1400 -88 c74 -77 118 -133 144 -182 16 -33 16 -34 -1 -26 -45 18 -219 56
-339 72 l-130 19 -18 68 c-10 37 -17 69 -15 70 3 3 252 42 278 45 9 0 45 -29
81 -66z m-1116 32 c166 -23 178 -26 169 -34 -11 -10 -140 -46 -232 -65 -38 -9
-94 -24 -123 -36 -72 -27 -83 -26 -68 3 12 23 129 147 138 147 3 0 55 -7 116
-15z m1682 -24 c43 -16 118 -47 167 -70 102 -47 103 -52 6 -94 l-55 -23 -105
108 c-59 59 -103 108 -99 108 4 0 43 -13 86 -29z m-937 -37 c11 -25 20 -56 20
-70 0 -20 -4 -23 -27 -19 -16 2 -77 7 -136 11 l-108 6 3 51 3 52 75 6 c161 12
148 15 170 -37z m-1533 -64 l-97 -100 -43 17 c-23 9 -53 23 -66 32 l-23 15 48
24 c58 30 255 112 269 112 6 0 -34 -45 -88 -100z m1261 43 l3 -53 -30 0 c-20
0 -31 -5 -31 -14 0 -8 4 -16 8 -18 4 -1 18 -17 30 -35 18 -26 22 -45 22 -112
l0 -81 -125 0 -125 0 0 48 c0 60 13 107 56 198 54 113 62 120 131 119 l58 0 3
-52z m1563 -119 c83 -60 208 -188 255 -261 69 -109 103 -233 89 -333 -8 -60
-6 -59 -148 -26 -56 13 -139 30 -183 37 l-81 12 -6 96 c-8 128 -38 236 -98
351 -28 52 -46 96 -41 98 5 1 38 18 73 37 35 19 67 34 70 34 4 1 35 -20 70
-45z m-3008 -9 c37 -16 67 -33 67 -38 0 -5 -18 -39 -40 -75 -22 -37 -51 -95
-64 -128 -27 -65 -56 -213 -56 -281 l0 -42 -57 -6 c-32 -4 -116 -17 -186 -30
-151 -26 -142 -32 -141 95 0 69 6 98 29 155 34 87 108 188 181 251 61 51 185
136 194 132 3 -2 36 -16 73 -33z m2838 -165 c47 -98 78 -226 79 -322 l0 -68
-32 0 c-25 1 -228 26 -234 29 -1 1 -4 26 -7 57 -10 101 -78 215 -177 300 l-49
42 117 31 c64 18 140 40 167 50 l50 18 23 -26 c12 -14 41 -64 63 -111z m-2598
78 c78 -23 144 -43 146 -44 2 -2 -21 -30 -51 -63 -71 -78 -106 -150 -126 -255
-18 -98 -6 -91 -178 -102 l-107 -7 6 92 c7 93 37 202 79 284 22 44 80 137 86
137 1 0 67 -19 145 -42z m1266 -15 c10 -21 22 -48 26 -61 6 -22 4 -23 -29 -20
-20 2 -36 6 -36 11 0 4 0 30 0 57 0 60 13 64 39 13z m-61 -148 c2 -21 1 -54
-3 -72 -5 -27 -11 -33 -31 -33 -38 0 -135 37 -162 62 -29 28 -54 73 -45 82 4
4 59 5 122 4 l116 -3 3 -40z m96 -4 c-1 -37 -7 -49 -33 -73 -18 -16 -36 -26
-41 -23 -11 7 -14 128 -3 139 4 4 23 6 43 4 35 -3 35 -4 34 -47z m-1334 -358
c19 -92 47 -155 105 -242 35 -53 50 -83 42 -86 -6 -3 -70 -18 -141 -35 -89
-21 -132 -27 -141 -20 -6 5 -33 52 -58 102 -46 91 -87 224 -87 279 0 25 4 28
48 35 26 4 83 10 127 14 44 4 83 8 87 9 4 0 12 -25 18 -56z m2658 38 c23 -5
45 -10 47 -13 10 -9 -30 -160 -60 -229 -35 -80 -93 -176 -119 -198 -13 -11
-28 -9 -93 13 -43 14 -94 28 -114 31 -63 11 -63 15 -1 111 63 94 111 203 120
268 l5 39 86 -7 c47 -4 105 -11 129 -15z m-2942 -117 c23 -103 54 -181 106
-266 17 -27 27 -52 24 -55 -4 -4 -43 -19 -88 -34 l-81 -28 -44 31 c-74 50
-168 145 -216 216 -51 76 -92 171 -79 184 8 8 327 57 347 53 5 -1 20 -46 31
-101z m3164 81 c109 -17 221 -44 234 -56 12 -11 -16 -85 -56 -149 -46 -71
-165 -184 -263 -249 -43 -28 -82 -51 -87 -51 -4 0 -44 18 -88 40 l-80 40 39
58 c74 110 141 277 141 353 0 33 9 41 40 35 14 -3 68 -12 120 -21z m-1384 -4
c38 -18 73 -54 87 -93 10 -27 -11 -82 -42 -112 -29 -28 -32 -28 -108 -23 -43
4 -102 6 -130 7 l-53 0 0 40 0 39 69 21 c37 11 70 20 73 20 3 0 22 7 43 16 35
14 36 17 22 31 -9 9 -30 16 -47 16 -38 0 -39 21 -2 41 35 19 39 19 88 -3z
m-417 -56 c15 -68 45 -95 107 -95 44 0 44 0 44 -35 l0 -35 -88 0 c-83 0 -89 2
-119 29 -66 60 -47 189 28 191 11 0 19 -16 28 -55z m149 -364 c-2 -99 -5 -181
-8 -184 -3 -3 -72 -6 -155 -8 l-149 -4 -22 85 c-12 47 -25 110 -29 141 l-7 55
114 33 c62 17 120 38 128 46 9 10 35 15 73 15 l58 0 -3 -179z m247 161 c11 -6
40 -16 64 -22 43 -11 43 -12 38 -48 -13 -77 -60 -263 -71 -276 -9 -12 -34 -13
-136 -8 l-125 7 -3 170 c-1 93 0 176 3 183 4 12 26 13 108 10 56 -3 111 -10
122 -16z m354 -78 c102 -20 188 -38 190 -40 27 -25 -231 -303 -267 -289 -8 3
-60 13 -116 22 -55 9 -103 18 -105 19 -2 2 10 59 27 126 17 68 33 140 37 161
5 29 10 37 27 37 12 0 105 -16 207 -36z m-1609 -39 c19 -20 58 -52 87 -72 50
-34 54 -35 95 -25 35 9 44 8 51 -4 16 -29 118 -143 149 -168 l32 -25 -30 -6
c-16 -3 -66 -17 -110 -31 -45 -13 -94 -24 -108 -24 -29 0 -171 37 -201 53 -73
37 -290 236 -283 258 5 15 197 70 274 78 5 0 26 -15 44 -34z m642 -97 c14 -68
27 -130 29 -138 3 -11 -19 -18 -100 -32 -57 -9 -110 -19 -118 -22 -17 -7 -203
175 -203 198 0 10 20 21 58 32 31 9 98 28 147 44 50 15 99 30 110 33 51 12 50
12 77 -115z m1494 88 c43 -13 95 -30 113 -38 l35 -14 -55 -55 c-62 -63 -199
-169 -255 -198 -22 -11 -73 -27 -114 -36 l-75 -16 -88 31 c-48 16 -94 30 -102
30 -8 0 -15 5 -15 10 0 6 4 10 8 10 21 0 174 170 232 259 16 23 17 24 85 12
64 -11 70 -11 94 8 34 26 42 26 137 -3z m-2463 -58 c24 -37 88 -101 160 -162
37 -31 63 -56 58 -56 -6 0 -52 15 -103 34 -154 57 -309 139 -292 156 11 11
124 49 145 50 9 0 23 -10 32 -22z m2711 -32 c42 -19 76 -37 76 -41 0 -18 -396
-172 -409 -159 -3 3 2 10 12 16 31 17 150 121 197 171 25 26 45 47 47 47 1 0
36 -15 77 -34z m-1386 -243 l-3 -88 -108 -3 -108 -3 -35 77 c-20 42 -32 80
-27 85 9 9 74 14 201 17 l83 2 -3 -87z m211 81 c34 -4 61 -12 61 -18 0 -6 -15
-40 -33 -76 l-34 -65 -83 -7 c-46 -4 -87 -5 -92 -2 -4 3 -8 43 -8 90 l0 84 64
0 c34 0 91 -3 125 -6z m-490 -90 l31 -77 -44 5 c-40 5 -128 43 -205 91 -33 20
-33 21 -12 29 23 8 128 25 172 27 24 1 30 -7 58 -75z m744 54 c42 -9 46 -12
35 -25 -11 -14 -87 -52 -181 -91 -38 -16 -91 -16 -84 1 3 6 17 41 33 76 l28
63 60 -7 c34 -3 83 -11 109 -17z m-940 -70 c48 -28 86 -52 84 -53 -14 -11
-382 43 -371 54 8 8 154 49 180 50 11 1 59 -22 107 -51z m1126 25 c102 -31
100 -32 -97 -57 -184 -24 -190 -22 -103 24 41 21 79 44 85 50 14 14 17 13 115
-17z"/>
</g>
</svg>
